<?xml version="1.0" encoding="UTF-8"?>
<svg xmlns="http://www.w3.org/2000/svg" width="1000" height="1000" viewBox="0 0 1000 1000">
  <title>Safari Pinned Tab</title>
  <g fill="#000000" fill-rule="evenodd">
    <path d="M 738.03 667.16 L 688.17 666.18 L 630.50 652.49 L 587.49 634.90 L 464.32 573.31 L 423.26 557.67 L 369.50 543.99 L 320.63 538.12 L 251.22 540.08 L 198.44 550.83 L 151.52 569.40 L 131.48 462.37 L 103.13 279.57 L 90.42 173.02 L 86.51 105.57 L 134.90 118.77 L 227.76 153.96 L 317.69 195.01 L 424.24 249.76 L 681.33 391.50 L 910.07 524.44 L 912.51 526.88 L 912.51 548.39 L 659.82 404.20 L 383.19 253.67 L 224.83 177.42 L 146.63 146.14 L 109.48 134.41 L 114.86 197.46 L 132.45 323.56 L 164.22 506.84 L 211.14 500.98 L 260.02 500.98 L 338.22 508.80 L 442.82 532.26 L 552.30 571.36 L 901.76 571.85 L 891.01 587.49 L 868.04 611.44 L 829.91 638.81 L 787.88 657.38 L 738.03 667.16 Z"/><path d="M 663.73 914.47 L 608.99 912.51 L 554.25 900.78 L 499.51 880.25 L 372.43 820.63 L 331.38 807.92 L 304.99 804.01 L 248.29 805.96 L 198.44 819.65 L 144.67 847.02 L 89.93 888.07 L 90.42 819.16 L 104.59 805.96 L 140.76 779.57 L 186.71 756.11 L 229.72 743.40 L 270.77 738.51 L 323.56 741.45 L 384.16 757.09 L 417.40 771.75 L 532.75 835.29 L 595.31 859.73 L 647.12 868.52 L 683.28 867.55 L 708.21 863.15 L 659.82 860.70 L 592.38 842.13 L 539.59 817.69 L 404.69 743.40 L 343.11 722.87 L 309.87 717.99 L 268.82 717.01 L 207.23 726.78 L 147.61 751.22 L 90.91 791.30 L 90.42 734.12 L 113.39 715.05 L 139.78 698.44 L 198.44 673.02 L 235.58 664.22 L 269.79 660.31 L 327.47 663.25 L 371.46 673.02 L 418.38 690.62 L 475.07 719.94 L 568.91 774.68 L 621.70 799.12 L 675.46 814.76 L 739.00 819.65 L 789.83 810.85 L 830.89 793.26 L 870.48 760.51 L 895.89 721.41 L 862.17 753.18 L 814.27 780.55 L 763.44 795.21 L 713.59 797.17 L 665.69 789.35 L 613.88 771.75 L 567.94 749.27 L 437.93 674.98 L 393.94 656.40 L 353.86 644.67 L 295.21 636.85 L 260.02 637.83 L 217.01 644.67 L 175.95 657.38 L 138.81 674.98 L 90.91 709.19 L 90.42 664.71 L 110.46 646.63 L 143.70 625.12 L 202.35 600.68 L 261.00 589.93 L 332.36 590.91 L 388.07 601.66 L 447.70 623.17 L 501.47 650.54 L 600.20 707.23 L 648.09 728.74 L 706.74 744.38 L 757.58 746.33 L 800.59 738.51 L 849.46 717.99 L 887.59 691.59 L 919.84 655.43 L 917.40 690.13 L 903.71 740.96 L 884.16 782.01 L 857.77 818.18 L 819.16 854.84 L 763.44 889.05 L 714.57 906.65 L 663.73 914.47 Z"/><path d="M 912.02 416.91 L 603.13 206.74 L 362.66 206.74 L 354.35 198.44 L 354.35 191.59 L 357.77 187.19 L 526.88 187.19 L 526.88 158.85 L 349.95 158.85 L 340.66 166.18 L 338.22 192.08 L 316.23 181.82 L 320.14 158.36 L 332.36 145.16 L 349.95 137.34 L 538.61 138.32 L 548.88 150.54 L 550.34 186.22 L 608.99 186.22 L 614.86 189.15 L 912.02 392.47 L 912.02 416.91 Z"/><path d="M 746.82 730.69 L 701.86 727.76 L 644.18 712.12 L 595.31 688.66 L 457.48 612.41 L 396.87 589.93 L 348.97 579.18 L 274.68 575.27 L 205.28 586.02 L 179.86 593.84 L 136.85 613.39 L 90.91 645.65 L 90.42 625.61 L 140.76 589.93 L 196.48 566.47 L 257.09 553.76 L 328.45 552.79 L 376.34 559.63 L 442.82 579.18 L 483.87 596.77 L 574.78 643.70 L 635.39 668.13 L 693.06 680.84 L 736.07 681.82 L 786.90 673.02 L 840.66 649.56 L 875.37 623.66 L 899.80 598.24 L 920.33 569.89 L 920.33 631.48 L 900.78 657.87 L 881.72 676.93 L 852.39 698.44 L 815.25 717.01 L 784.95 725.81 L 746.82 730.69 Z"/><path d="M 912.02 458.94 L 600.20 254.64 L 451.61 253.67 L 411.05 229.72 L 605.08 230.21 L 906.16 431.57 L 912.51 436.95 L 912.02 458.94 Z"/><path d="M 912.02 505.87 L 606.06 311.34 L 596.29 308.41 L 549.36 308.41 L 500.00 279.57 L 604.11 281.04 L 910.07 479.47 L 912.51 481.92 L 912.02 505.87 Z"/><path d="M 610.95 177.42 L 587.49 177.42 L 571.85 173.51 L 564.52 165.20 L 556.70 137.83 L 546.43 129.52 L 492.67 128.54 L 492.18 72.34 L 521.02 60.12 L 553.27 58.16 L 580.65 64.03 L 603.13 77.71 L 611.44 88.95 L 610.95 177.42 Z"/><path d="M 729.23 254.64 L 625.12 184.75 L 626.59 136.36 L 648.09 127.57 L 675.46 125.61 L 703.81 132.45 L 722.87 145.65 L 729.72 155.43 L 729.23 254.64 Z"/><path d="M 830.89 326.00 L 741.45 264.91 L 741.94 203.81 L 759.53 196.97 L 784.95 195.99 L 812.32 204.79 L 826.49 217.01 L 831.38 224.83 L 830.89 326.00 Z"/><path d="M 224.83 311.34 L 209.19 310.36 L 195.50 303.52 L 186.22 293.26 L 180.35 277.61 L 181.33 261.00 L 186.22 250.24 L 199.41 238.03 L 213.10 233.14 L 227.76 234.12 L 241.45 240.96 L 251.71 252.20 L 257.58 269.79 L 256.60 282.50 L 249.76 296.19 L 236.56 307.43 L 224.83 311.34 Z"/><path d="M 373.41 324.05 L 364.61 322.09 L 361.19 317.69 L 360.22 310.85 L 366.57 303.52 L 375.37 304.50 L 380.74 310.85 L 379.77 318.67 L 373.41 324.05 Z"/><path d="M 374.39 384.65 L 367.55 384.65 L 361.19 379.28 L 360.22 372.43 L 365.59 365.10 L 371.46 364.13 L 379.77 369.50 L 380.74 377.32 L 374.39 384.65 Z"/><path d="M 428.15 409.09 L 418.38 407.14 L 414.96 401.76 L 415.93 393.94 L 423.26 388.56 L 429.13 389.54 L 434.51 394.92 L 434.51 402.74 L 428.15 409.09 Z"/><path d="M 431.09 348.48 L 424.24 348.48 L 417.89 342.13 L 417.89 334.31 L 423.26 328.93 L 432.06 329.91 L 437.44 336.27 L 435.48 345.06 L 431.09 348.48 Z"/><path d="M 478.98 432.55 L 472.14 431.57 L 466.76 425.22 L 467.74 417.40 L 473.12 413.00 L 479.96 413.00 L 486.31 420.33 L 485.34 427.17 L 478.98 432.55 Z"/>
  </g>
</svg>
