<?xml version="1.0" encoding="UTF-8" standalone="no"?>
<!DOCTYPE svg PUBLIC "-//W3C//DTD SVG 1.1//EN" "http://www.w3.org/Graphics/SVG/1.1/DTD/svg11.dtd">
<!-- Created with Vectornator (http://vectornator.io/) -->
<svg height="100%" stroke-miterlimit="10" style="fill-rule:nonzero;clip-rule:evenodd;stroke-linecap:round;stroke-linejoin:round;" version="1.1" viewBox="-5.33063 -6.36605 2008.26 2009.29" width="100%" xml:space="preserve" xmlns="http://www.w3.org/2000/svg" xmlns:vectornator="http://vectornator.io" xmlns:xlink="http://www.w3.org/1999/xlink">
<defs/>
<g id="Layer">
<g opacity="0.0266653">
<path d="M1454 1038C1472.64 1038 1452.46 1060.15 1450 1070C1443 1098 1450.58 1137.39 1433 1162C1425.45 1172.57 1413.17 1174.46 1405 1184C1395.85 1194.67 1397.12 1208.71 1382 1214C1367.16 1219.19 1350.61 1216.13 1335 1218C1321.2 1219.66 1305.21 1229.11 1294 1237C1266.76 1256.17 1220.53 1298.53 1218 1334C1216.7 1352.26 1221.54 1376.21 1208 1392C1202.86 1398 1193.31 1398.94 1187 1403C1174.35 1411.13 1172.35 1427.37 1159 1435C1138.58 1446.67 1104.62 1445.02 1082 1448C1068.28 1449.81 1051.88 1463.58 1039 1461C1037.88 1453.16 1043.44 1445.48 1048 1439C1058.74 1423.74 1070.29 1412.75 1088 1406C1098.95 1401.83 1118.86 1398.72 1127 1390C1132.55 1384.05 1135.41 1375.92 1141 1370C1146.72 1363.94 1154.64 1360.38 1161 1355C1165.78 1350.96 1167.95 1332.21 1168 1332C1170.29 1321.99 1172.46 1311.95 1175 1302C1181.41 1276.93 1194.62 1252.17 1212 1233C1237.15 1205.24 1267.71 1188.42 1303 1177C1311.93 1174.11 1320.95 1171.5 1330 1169C1338.43 1166.67 1349.44 1167.75 1355 1161C1360.89 1153.85 1364.88 1144.93 1372 1139C1377.9 1134.09 1386.68 1132.35 1391 1126C1400.13 1112.57 1403.74 1091.53 1411 1077C1418.85 1061.3 1432.14 1053.01 1454 1038Z" fill="#c7b37f" fill-rule="nonzero" opacity="1" stroke="none"/>
<path d="M454 1038C472.637 1038 452.464 1060.15 450 1070C443.001 1098 450.576 1137.39 433 1162C425.451 1172.57 413.173 1174.46 405 1184C395.852 1194.67 397.125 1208.71 382 1214C367.159 1219.19 350.611 1216.13 335 1218C321.2 1219.66 305.209 1229.11 294 1237C266.763 1256.17 220.534 1298.53 218 1334C216.696 1352.26 221.538 1376.21 208 1392C202.856 1398 193.311 1398.94 187 1403C174.351 1411.13 172.353 1427.37 159 1435C138.576 1446.67 104.618 1445.02 82 1448C68.2815 1449.81 51.8839 1463.58 39 1461C37.8795 1453.16 43.4402 1445.48 48 1439C58.7369 1423.74 70.2901 1412.75 88 1406C98.9509 1401.83 118.864 1398.72 127 1390C132.553 1384.05 135.412 1375.92 141 1370C146.722 1363.94 154.638 1360.38 161 1355C165.779 1350.96 167.953 1332.21 168 1332C170.294 1321.99 172.455 1311.95 175 1302C181.413 1276.93 194.625 1252.17 212 1233C237.154 1205.24 267.71 1188.42 303 1177C311.931 1174.11 320.953 1171.5 330 1169C338.433 1166.67 349.438 1167.75 355 1161C360.891 1153.85 364.88 1144.93 372 1139C377.895 1134.09 386.685 1132.35 391 1126C400.13 1112.57 403.735 1091.53 411 1077C418.852 1061.3 432.137 1053.01 454 1038Z" fill="#c7b37f" fill-rule="nonzero" opacity="1" stroke="none"/>
<path d="M1454 38C1472.64 38 1452.46 60.1457 1450 70C1443 97.9956 1450.58 137.393 1433 162C1425.45 172.569 1413.17 174.465 1405 184C1395.85 194.673 1397.12 208.706 1382 214C1367.16 219.194 1350.61 216.127 1335 218C1321.2 219.656 1305.21 229.112 1294 237C1266.76 256.167 1220.53 298.53 1218 334C1216.7 352.261 1221.54 376.206 1208 392C1202.86 398.002 1193.31 398.943 1187 403C1174.35 411.131 1172.35 427.37 1159 435C1138.58 446.671 1104.62 445.024 1082 448C1068.28 449.805 1051.88 463.577 1039 461C1037.88 453.156 1043.44 445.48 1048 439C1058.74 423.742 1070.29 412.747 1088 406C1098.95 401.828 1118.86 398.717 1127 390C1132.55 384.051 1135.41 375.916 1141 370C1146.72 363.942 1154.64 360.383 1161 355C1165.78 350.956 1167.95 332.207 1168 332C1170.29 321.991 1172.46 311.948 1175 302C1181.41 276.93 1194.62 252.173 1212 233C1237.15 205.243 1267.71 188.417 1303 177C1311.93 174.111 1320.95 171.502 1330 169C1338.43 166.667 1349.44 167.754 1355 161C1360.89 153.846 1364.88 144.933 1372 139C1377.9 134.087 1386.68 132.346 1391 126C1400.13 112.573 1403.74 91.5292 1411 77C1418.85 61.2964 1432.14 53.0121 1454 38Z" fill="#c7b37f" fill-rule="nonzero" opacity="1" stroke="none"/>
<path d="M454 38C472.637 38 452.464 60.1457 450 70C443.001 97.9956 450.576 137.393 433 162C425.451 172.569 413.173 174.465 405 184C395.852 194.673 397.125 208.706 382 214C367.159 219.194 350.611 216.127 335 218C321.2 219.656 305.209 229.112 294 237C266.763 256.167 220.534 298.53 218 334C216.696 352.261 221.538 376.206 208 392C202.856 398.002 193.311 398.943 187 403C174.351 411.131 172.353 427.37 159 435C138.576 446.671 104.618 445.024 82 448C68.2815 449.805 51.8839 463.577 39 461C37.8795 453.156 43.4402 445.48 48 439C58.7369 423.742 70.2901 412.747 88 406C98.9509 401.828 118.864 398.717 127 390C132.553 384.051 135.412 375.916 141 370C146.722 363.942 154.638 360.383 161 355C165.779 350.956 167.953 332.207 168 332C170.294 321.991 172.455 311.948 175 302C181.413 276.93 194.625 252.173 212 233C237.154 205.243 267.71 188.417 303 177C311.931 174.111 320.953 171.502 330 169C338.433 166.667 349.438 167.754 355 161C360.891 153.846 364.88 144.933 372 139C377.895 134.087 386.685 132.346 391 126C400.13 112.573 403.735 91.5292 411 77C418.852 61.2964 432.137 53.0121 454 38Z" fill="#c7b37f" fill-rule="nonzero" opacity="1" stroke="none"/>
<path d="M1540 1038C1543 1038 1543 1038 1546 1038C1546 1038.76 1579.89 1062.66 1585 1070C1596.73 1086.86 1596.06 1112.39 1610 1127C1617.55 1134.91 1628.88 1138.7 1636 1147C1640.21 1151.91 1641.61 1159.41 1647 1163C1656.09 1169.06 1668.32 1167.73 1679 1170C1705.55 1175.63 1730.55 1185.52 1753 1201C1790.13 1226.61 1810.66 1265.07 1824 1307C1828.83 1322.18 1830.36 1338.52 1837 1353C1839.89 1359.31 1848.52 1360.74 1854 1365C1863 1372 1866.1 1384.88 1875 1392C1895.16 1408.13 1923.42 1405 1942 1426C1949.6 1434.59 1957.63 1443.39 1962 1454C1962.2 1454.48 1963.32 1461.63 1960 1462C1945.37 1463.63 1929.35 1448.57 1914 1447C1893.31 1444.88 1858.11 1445.47 1839 1434C1826.8 1426.68 1825.8 1411.67 1814 1404C1803.81 1397.37 1794.16 1396.95 1788 1386C1779.32 1370.57 1783.88 1349.63 1782 1334C1779.03 1309.23 1755.54 1281.2 1739 1264C1721.8 1246.11 1691.29 1220.45 1665 1218C1652.58 1216.84 1623.17 1221.29 1610 1210C1600.76 1202.08 1601.43 1189.02 1592 1181C1582.1 1172.58 1579.18 1175.18 1571 1167C1551.83 1147.83 1555.15 1106.53 1552 1082C1550.11 1067.22 1535.47 1051.59 1540 1038Z" fill="#c7b380" fill-rule="nonzero" opacity="1" stroke="none"/>
<path d="M540 1038C543 1038 543 1038 546 1038C546 1038.76 579.894 1062.66 585 1070C596.727 1086.86 596.057 1112.39 610 1127C617.55 1134.91 628.884 1138.7 636 1147C640.212 1151.91 641.615 1159.41 647 1163C656.085 1169.06 668.319 1167.73 679 1170C705.549 1175.63 730.552 1185.52 753 1201C790.132 1226.61 810.659 1265.07 824 1307C828.831 1322.18 830.361 1338.52 837 1353C839.89 1359.31 848.525 1360.74 854 1365C863 1372 866.097 1384.88 875 1392C895.157 1408.13 923.421 1405 942 1426C949.6 1434.59 957.633 1443.39 962 1454C962.199 1454.48 963.32 1461.63 960 1462C945.366 1463.63 929.354 1448.57 914 1447C893.312 1444.88 858.111 1445.47 839 1434C826.803 1426.68 825.797 1411.67 814 1404C803.807 1397.37 794.158 1396.95 788 1386C779.321 1370.57 783.876 1349.63 782 1334C779.028 1309.23 755.536 1281.2 739 1264C721.799 1246.11 691.292 1220.45 665 1218C652.583 1216.84 623.167 1221.29 610 1210C600.762 1202.08 601.431 1189.02 592 1181C582.096 1172.58 579.183 1175.18 571 1167C551.831 1147.83 555.145 1106.53 552 1082C550.105 1067.22 535.469 1051.59 540 1038Z" fill="#c7b380" fill-rule="nonzero" opacity="1" stroke="none"/>
<path d="M1540 38C1543 38 1543 38 1546 38C1546 38.7623 1579.89 62.6598 1585 70C1596.73 86.8579 1596.06 112.393 1610 127C1617.55 134.909 1628.88 138.698 1636 147C1640.21 151.914 1641.61 159.41 1647 163C1656.09 169.057 1668.32 167.734 1679 170C1705.55 175.632 1730.55 185.518 1753 201C1790.13 226.608 1810.66 265.072 1824 307C1828.83 322.184 1830.36 338.515 1837 353C1839.89 359.305 1848.52 360.742 1854 365C1863 372 1866.1 384.877 1875 392C1895.16 408.125 1923.42 404.998 1942 426C1949.6 434.591 1957.63 443.394 1962 454C1962.2 454.483 1963.32 461.631 1960 462C1945.37 463.626 1929.35 448.575 1914 447C1893.31 444.878 1858.11 445.466 1839 434C1826.8 426.682 1825.8 411.668 1814 404C1803.81 397.375 1794.16 396.948 1788 386C1779.32 370.571 1783.88 349.629 1782 334C1779.03 309.235 1755.54 281.198 1739 264C1721.8 246.111 1691.29 220.446 1665 218C1652.58 216.845 1623.17 221.286 1610 210C1600.76 202.082 1601.43 189.016 1592 181C1582.1 172.581 1579.18 175.183 1571 167C1551.83 147.831 1555.15 106.532 1552 82C1550.11 67.2192 1535.47 51.5928 1540 38Z" fill="#c7b380" fill-rule="nonzero" opacity="1" stroke="none"/>
<path d="M540 38C543 38 543 38 546 38C546 38.7623 579.894 62.6598 585 70C596.727 86.8579 596.057 112.393 610 127C617.55 134.909 628.884 138.698 636 147C640.212 151.914 641.615 159.41 647 163C656.085 169.057 668.319 167.734 679 170C705.549 175.632 730.552 185.518 753 201C790.132 226.608 810.659 265.072 824 307C828.831 322.184 830.361 338.515 837 353C839.89 359.305 848.525 360.742 854 365C863 372 866.097 384.877 875 392C895.157 408.125 923.421 404.998 942 426C949.6 434.591 957.633 443.394 962 454C962.199 454.483 963.32 461.631 960 462C945.366 463.626 929.354 448.575 914 447C893.312 444.878 858.111 445.466 839 434C826.803 426.682 825.797 411.668 814 404C803.807 397.375 794.158 396.948 788 386C779.321 370.571 783.876 349.629 782 334C779.028 309.235 755.536 281.198 739 264C721.799 246.111 691.292 220.446 665 218C652.583 216.845 623.167 221.286 610 210C600.762 202.082 601.431 189.016 592 181C582.096 172.581 579.183 175.183 571 167C551.831 147.831 555.145 106.532 552 82C550.105 67.2192 535.469 51.5928 540 38Z" fill="#c7b380" fill-rule="nonzero" opacity="1" stroke="none"/>
<path d="M1962 1546C1960.57 1546 1938.88 1578.75 1931 1584C1913.88 1595.41 1891.79 1596.81 1875 1608C1865.76 1614.16 1861.87 1628.74 1853 1636C1847.99 1640.1 1840.1 1641.32 1837 1647C1828.91 1661.83 1829.68 1681.64 1825 1698C1817.26 1725.1 1803.27 1750.19 1784 1771C1761.05 1795.79 1731.8 1811.4 1700 1822C1683.42 1827.53 1663.76 1829 1648 1836C1644.67 1837.48 1635.87 1852.88 1635 1854C1627.22 1864.01 1621.31 1863.75 1610 1873C1600.29 1880.94 1593.71 1912.94 1588 1924C1580.35 1938.82 1568.68 1946.88 1555 1956C1548.5 1960.33 1550.42 1960 1546 1960C1546 1961 1546 1961 1546 1962C1527.04 1962 1547.26 1939.04 1550 1929C1557.27 1902.36 1550.34 1849.13 1573 1831C1576.26 1828.4 1590.17 1821.37 1594 1817C1603.6 1806.02 1602.59 1791.39 1618 1786C1632.84 1780.81 1649.39 1783.91 1665 1782C1694.91 1778.34 1729.84 1748.35 1748 1726C1760.54 1710.57 1780.11 1686.28 1782 1665C1784.03 1642.13 1779.85 1635.58 1786 1618C1792.14 1600.47 1810.42 1604.18 1820 1591C1829.44 1578.02 1827.05 1573.02 1840 1565C1864.48 1549.85 1903.72 1557.48 1930 1549C1938.75 1546.18 1962 1527.72 1962 1546Z" fill="#c7b380" fill-rule="nonzero" opacity="1" stroke="none"/>
<path d="M962 1546C960.569 1546 938.882 1578.75 931 1584C913.882 1595.41 891.79 1596.81 875 1608C865.756 1614.16 861.872 1628.74 853 1636C847.991 1640.1 840.099 1641.32 837 1647C828.913 1661.83 829.675 1681.64 825 1698C817.256 1725.1 803.271 1750.19 784 1771C761.045 1795.79 731.799 1811.4 700 1822C683.42 1827.53 663.758 1829 648 1836C644.673 1837.48 635.869 1852.88 635 1854C627.218 1864.01 621.311 1863.75 610 1873C600.294 1880.94 593.708 1912.94 588 1924C580.349 1938.82 568.68 1946.88 555 1956C548.504 1960.33 550.419 1960 546 1960C546 1961 546 1961 546 1962C527.042 1962 547.263 1939.04 550 1929C557.267 1902.36 550.338 1849.13 573 1831C576.256 1828.4 590.173 1821.37 594 1817C603.605 1806.02 602.595 1791.39 618 1786C632.841 1780.81 649.393 1783.91 665 1782C694.913 1778.34 729.841 1748.35 748 1726C760.538 1710.57 780.109 1686.28 782 1665C784.033 1642.13 779.846 1635.58 786 1618C792.135 1600.47 810.416 1604.18 820 1591C829.44 1578.02 827.047 1573.02 840 1565C864.479 1549.85 903.716 1557.48 930 1549C938.751 1546.18 962 1527.72 962 1546Z" fill="#c7b380" fill-rule="nonzero" opacity="1" stroke="none"/>
<path d="M1962 546C1960.57 546 1938.88 578.746 1931 584C1913.88 595.412 1891.79 596.806 1875 608C1865.76 614.163 1861.87 628.741 1853 636C1852.31 636.568 1838.44 643.523 1836 648C1828.42 661.902 1829.47 682.346 1825 698C1817.26 725.105 1803.27 750.187 1784 771C1761.05 795.791 1731.8 811.4 1700 822C1683.42 827.527 1663.76 828.996 1648 836C1644.67 837.478 1635.87 852.883 1635 854C1627.22 864.005 1621.31 863.746 1610 873C1599.99 881.188 1597.71 904.138 1592 916C1583.63 933.377 1573.91 943.179 1558 954C1548.67 960.343 1551.67 960 1546 960C1546 961 1546 961 1546 962C1527.04 962 1547.26 939.037 1550 929C1557.27 902.356 1550.34 849.13 1573 831C1576.26 828.395 1590.17 821.374 1594 817C1603.6 806.023 1602.59 791.392 1618 786C1632.84 780.806 1649.39 783.911 1665 782C1694.91 778.337 1729.84 748.349 1748 726C1760.54 710.568 1780.11 686.279 1782 665C1784.03 642.126 1779.85 635.583 1786 618C1792.14 600.471 1810.42 604.178 1820 591C1829.44 578.021 1827.05 573.019 1840 565C1864.48 549.846 1903.72 557.479 1930 549C1938.75 546.177 1962 527.723 1962 546Z" fill="#c7b380" fill-rule="nonzero" opacity="1" stroke="none"/>
<path d="M962 546C960.569 546 938.882 578.746 931 584C913.882 595.412 891.79 596.806 875 608C865.756 614.163 861.872 628.741 853 636C852.306 636.568 838.442 643.523 836 648C828.417 661.902 829.473 682.346 825 698C817.256 725.105 803.271 750.187 784 771C761.045 795.791 731.799 811.4 700 822C683.42 827.527 663.758 828.996 648 836C644.673 837.478 635.869 852.883 635 854C627.218 864.005 621.311 863.746 610 873C599.993 881.188 597.711 904.138 592 916C583.633 933.377 573.913 943.179 558 954C548.672 960.343 551.674 960 546 960C546 961 546 961 546 962C527.042 962 547.263 939.037 550 929C557.267 902.356 550.338 849.13 573 831C576.256 828.395 590.173 821.374 594 817C603.605 806.023 602.595 791.392 618 786C632.841 780.806 649.393 783.911 665 782C694.913 778.337 729.841 748.349 748 726C760.538 710.568 780.109 686.279 782 665C784.033 642.126 779.846 635.583 786 618C792.135 600.471 810.416 604.178 820 591C829.44 578.021 827.047 573.019 840 565C864.479 549.846 903.716 557.479 930 549C938.751 546.177 962 527.723 962 546Z" fill="#c7b380" fill-rule="nonzero" opacity="1" stroke="none"/>
<path d="M1040 546C1039 546 1039 546 1038 546C1038 528.729 1060.77 545.539 1070 549C1097.58 559.342 1136.79 548.993 1162 567C1173.43 575.167 1175 589.89 1187 597C1193.9 601.091 1207.62 603.744 1212 613C1220.06 630.024 1216.32 646.073 1218 665C1219.19 678.349 1229.89 695.336 1237 706C1258.3 737.954 1295.19 775.714 1335 782C1356.34 785.369 1374.4 778.171 1392 792C1399.71 798.059 1400.4 810.521 1407 818C1415.12 827.197 1428.49 828.755 1435 840C1446.55 859.944 1444.13 891.613 1447 914C1448.33 924.409 1463.7 954.041 1462 960C1458.7 971.549 1423.09 940.451 1419 935C1405.51 917.013 1404.93 892.238 1392 875C1386.56 867.746 1376.74 865.066 1370 859C1364.86 854.371 1359.13 839.258 1353 837C1334.39 830.145 1313.85 829.282 1295 823C1264.52 812.84 1237.24 795.279 1216 771C1195.19 747.22 1183.29 716.73 1174 687C1170.49 675.762 1170.16 654.845 1162 646C1156.98 640.562 1149.39 638.073 1144 633C1137.06 626.466 1133.9 616.575 1127 610C1116.82 600.309 1100.96 599.426 1088 594C1067.73 585.517 1056.02 573.033 1044 555C1039.67 548.504 1040 550.419 1040 546Z" fill="#c7b380" fill-rule="nonzero" opacity="1" stroke="none"/>
<path d="M40 546C39 546 39 546 38 546C38 528.729 60.7701 545.539 70 549C97.5791 559.342 136.791 548.993 162 567C173.433 575.167 175.001 589.89 187 597C193.904 601.091 207.616 603.744 212 613C220.064 630.024 216.318 646.073 218 665C219.187 678.349 229.891 695.336 237 706C258.303 737.954 295.186 775.714 335 782C356.338 785.369 374.399 778.171 392 792C399.711 798.059 400.401 810.521 407 818C415.115 827.197 428.489 828.755 435 840C446.547 859.944 444.13 891.613 447 914C448.335 924.409 463.703 954.041 462 960C458.7 971.549 423.088 940.451 419 935C405.51 917.013 404.928 892.238 392 875C386.559 867.746 376.74 865.066 370 859C364.856 854.371 359.129 839.258 353 837C334.395 830.145 313.847 829.282 295 823C264.521 812.84 237.244 795.279 216 771C195.192 747.22 183.291 716.73 174 687C170.488 675.762 170.164 654.845 162 646C156.98 640.562 149.39 638.073 144 633C137.058 626.466 133.904 616.575 127 610C116.825 600.309 100.962 599.426 88 594C67.7342 585.517 56.0221 573.033 44 555C39.6692 548.504 40 550.419 40 546Z" fill="#c7b380" fill-rule="nonzero" opacity="1" stroke="none"/>
<path d="M1040 1546C1039 1546 1039 1546 1038 1546C1038 1528.73 1060.77 1545.54 1070 1549C1097.58 1559.34 1136.79 1548.99 1162 1567C1173.43 1575.17 1175 1589.89 1187 1597C1193.9 1601.09 1207.62 1603.74 1212 1613C1220.06 1630.02 1216.32 1646.07 1218 1665C1219.19 1678.35 1229.89 1695.34 1237 1706C1258.3 1737.95 1295.19 1775.71 1335 1782C1356.34 1785.37 1374.4 1778.17 1392 1792C1399.71 1798.06 1400.4 1810.52 1407 1818C1415.12 1827.2 1428.49 1828.75 1435 1840C1446.55 1859.94 1444.13 1891.61 1447 1914C1448.33 1924.41 1463.7 1954.04 1462 1960C1458.7 1971.55 1423.09 1940.45 1419 1935C1405.73 1917.31 1403.85 1895.44 1393 1877C1387.07 1866.92 1372.68 1863.03 1365 1854C1360.51 1848.72 1359.26 1839.98 1353 1837C1335.48 1828.66 1313.5 1829.17 1295 1823C1264.52 1812.84 1237.24 1795.28 1216 1771C1195.19 1747.22 1183.29 1716.73 1174 1687C1170.49 1675.76 1170.16 1654.84 1162 1646C1156.98 1640.56 1149.39 1638.07 1144 1633C1137.06 1626.47 1133.9 1616.57 1127 1610C1116.82 1600.31 1100.96 1599.43 1088 1594C1067.73 1585.52 1056.02 1573.03 1044 1555C1039.67 1548.5 1040 1550.42 1040 1546Z" fill="#c7b380" fill-rule="nonzero" opacity="1" stroke="none"/>
<path d="M40 1546C39 1546 39 1546 38 1546C38 1528.73 60.7701 1545.54 70 1549C97.5791 1559.34 136.791 1548.99 162 1567C173.433 1575.17 175.001 1589.89 187 1597C193.904 1601.09 207.616 1603.74 212 1613C220.064 1630.02 216.318 1646.07 218 1665C219.187 1678.35 229.891 1695.34 237 1706C258.303 1737.95 295.186 1775.71 335 1782C356.338 1785.37 374.399 1778.17 392 1792C399.711 1798.06 400.401 1810.52 407 1818C415.115 1827.2 428.489 1828.75 435 1840C446.547 1859.94 444.13 1891.61 447 1914C448.335 1924.41 463.703 1954.04 462 1960C458.7 1971.55 423.088 1940.45 419 1935C405.731 1917.31 403.847 1895.44 393 1877C387.068 1866.92 372.68 1863.03 365 1854C360.508 1848.72 359.262 1839.98 353 1837C335.483 1828.66 313.501 1829.17 295 1823C264.521 1812.84 237.244 1795.28 216 1771C195.192 1747.22 183.291 1716.73 174 1687C170.488 1675.76 170.164 1654.84 162 1646C156.98 1640.56 149.39 1638.07 144 1633C137.058 1626.47 133.904 1616.57 127 1610C116.825 1600.31 100.962 1599.43 88 1594C67.7342 1585.52 56.0221 1573.03 44 1555C39.6692 1548.5 40 1550.42 40 1546Z" fill="#c7b380" fill-rule="nonzero" opacity="1" stroke="none"/>
<path d="M1473 1452C1480.88 1449.83 1489.13 1454.81 1497 1457C1504.79 1459.16 1504.81 1453.86 1513 1452C1524.65 1449.35 1535.34 1454.65 1543 1463C1552.86 1473.75 1546.2 1485.47 1543 1497C1540.84 1504.79 1546.14 1504.81 1548 1513C1551.66 1529.1 1540.75 1544.72 1525 1548C1510.32 1551.06 1515.6 1546.94 1503 1543C1489.87 1538.9 1482.35 1557.8 1463 1543C1447.68 1531.28 1452.37 1517.81 1457 1503C1458.98 1496.66 1455.33 1495.59 1453 1490C1445.82 1472.78 1457.56 1456.26 1473 1452Z" fill="#c7b380" fill-rule="nonzero" opacity="1" stroke="none"/>
<path d="M473 1452C480.878 1449.83 489.126 1454.81 497 1457C504.793 1459.16 504.814 1453.86 513 1452C524.649 1449.35 535.341 1454.65 543 1463C552.856 1473.75 546.204 1485.47 543 1497C540.835 1504.79 546.139 1504.81 548 1513C551.659 1529.1 540.749 1544.72 525 1548C510.318 1551.06 515.605 1546.94 503 1543C489.871 1538.9 482.349 1557.8 463 1543C447.677 1531.28 452.373 1517.81 457 1503C458.983 1496.66 455.328 1495.59 453 1490C445.824 1472.78 457.558 1456.26 473 1452Z" fill="#c7b380" fill-rule="nonzero" opacity="1" stroke="none"/>
<path d="M973 952C980.878 949.829 989.126 954.813 997 957C1004.79 959.165 1004.81 953.861 1013 952C1024.65 949.352 1035.34 954.645 1043 963C1052.86 973.752 1046.2 985.467 1043 997C1040.84 1004.79 1046.14 1004.81 1048 1013C1051.66 1029.1 1040.75 1044.72 1025 1048C1010.32 1051.06 1015.6 1046.94 1003 1043C989.871 1038.9 982.349 1057.8 963 1043C947.677 1031.28 952.373 1017.81 957 1003C958.983 996.656 955.328 995.588 953 990C945.824 972.778 957.558 956.256 973 952Z" fill="#c7b380" fill-rule="nonzero" opacity="1" stroke="none"/>
<path d="M1473 452C1480.88 449.829 1489.13 454.813 1497 457C1504.79 459.165 1504.81 453.861 1513 452C1524.65 449.352 1535.34 454.645 1543 463C1552.86 473.752 1546.2 485.467 1543 497C1540.84 504.793 1546.14 504.814 1548 513C1551.66 529.101 1540.75 544.719 1525 548C1510.32 551.059 1515.6 546.939 1503 543C1489.87 538.897 1482.35 557.796 1463 543C1447.68 531.282 1452.37 517.806 1457 503C1458.98 496.656 1455.33 495.588 1453 490C1445.82 472.778 1457.56 456.256 1473 452Z" fill="#c7b380" fill-rule="nonzero" opacity="1" stroke="none"/>
<path d="M473 452C480.878 449.829 489.126 454.813 497 457C504.793 459.165 504.814 453.861 513 452C524.649 449.352 535.341 454.645 543 463C552.856 473.752 546.204 485.467 543 497C540.835 504.793 546.139 504.814 548 513C551.659 529.101 540.749 544.719 525 548C510.318 551.059 515.605 546.939 503 543C489.871 538.897 482.349 557.796 463 543C447.677 531.282 452.373 517.806 457 503C458.983 496.656 455.328 495.588 453 490C445.824 472.778 457.558 456.256 473 452Z" fill="#c7b380" fill-rule="nonzero" opacity="1" stroke="none"/>
<path d="M1111 1456C1146.92 1452.36 1122.22 1481.58 1128 1497C1135.45 1516.86 1152.11 1520.94 1120 1537C1097.56 1548.22 1088.41 1535.29 1071 1527C1067.97 1525.56 1053.07 1527.13 1052 1520C1051.16 1514.4 1051.57 1508.65 1052 1503C1052.24 1499.94 1052.98 1496.9 1054 1494C1063.64 1466.69 1075.34 1479.9 1094 1472C1101.17 1468.97 1103.26 1456.78 1111 1456Z" fill="#c6b37f" fill-rule="nonzero" opacity="1" stroke="none"/>
<path d="M111 1456C146.916 1452.36 122.217 1481.58 128 1497C135.449 1516.86 152.111 1520.94 120 1537C97.5584 1548.22 88.4092 1535.29 71 1527C67.9708 1525.56 53.0691 1527.13 52 1520C51.1594 1514.4 51.5654 1508.65 52 1503C52.2357 1499.94 52.9772 1496.9 54 1494C63.6402 1466.69 75.3357 1479.9 94 1472C101.167 1468.97 103.258 1456.78 111 1456Z" fill="#c6b37f" fill-rule="nonzero" opacity="1" stroke="none"/>
<path d="M1111 456C1146.92 452.359 1122.22 481.579 1128 497C1135.45 516.864 1152.11 520.945 1120 537C1097.56 548.221 1088.41 535.29 1071 527C1067.97 525.558 1053.07 527.127 1052 520C1051.16 514.396 1051.57 508.65 1052 503C1052.24 499.936 1052.98 496.898 1054 494C1063.64 466.686 1075.34 479.896 1094 472C1101.17 468.968 1103.26 456.785 1111 456Z" fill="#c6b37f" fill-rule="nonzero" opacity="1" stroke="none"/>
<path d="M111 456C146.916 452.359 122.217 481.579 128 497C135.449 516.864 152.111 520.945 120 537C97.5584 548.221 88.4092 535.29 71 527C67.9708 525.558 53.0691 527.127 52 520C51.1594 514.396 51.5654 508.65 52 503C52.2357 499.936 52.9772 496.898 54 494C63.6402 466.686 75.3357 479.896 94 472C101.167 468.968 103.258 456.785 111 456Z" fill="#c6b37f" fill-rule="nonzero" opacity="1" stroke="none"/>
<path d="M1611 956C1646.92 952.359 1622.22 981.579 1628 997C1629.76 1001.68 1634.35 1004.76 1637 1009C1645.79 1023.06 1625.61 1034.8 1616 1039C1594.72 1048.31 1586.62 1034.81 1571 1027C1569.18 1026.09 1552.88 1025.87 1552 1020C1551.16 1014.4 1551.57 1008.65 1552 1003C1552.24 999.936 1552.98 996.898 1554 994C1563.64 966.686 1575.34 979.896 1594 972C1601.17 968.968 1603.26 956.785 1611 956Z" fill="#c7b37f" fill-rule="nonzero" opacity="1" stroke="none"/>
<path d="M611 956C646.916 952.359 622.217 981.579 628 997C629.756 1001.68 634.35 1004.76 637 1009C645.785 1023.06 625.611 1034.8 616 1039C594.725 1048.31 586.62 1034.81 571 1027C569.176 1026.09 552.881 1025.87 552 1020C551.159 1014.4 551.565 1008.65 552 1003C552.236 999.936 552.977 996.898 554 994C563.64 966.686 575.336 979.896 594 972C601.167 968.968 603.258 956.785 611 956Z" fill="#c7b37f" fill-rule="nonzero" opacity="1" stroke="none"/>
<path d="M1013 1362C1036.17 1360.79 1041.96 1388.02 1040 1407C1038.98 1416.83 1029.42 1420.27 1027 1428C1026.74 1428.84 1026.28 1445.32 1021 1447C1003.06 1452.71 975.269 1443.55 973 1422C972.441 1416.69 974.312 1410.82 972 1406C967.089 1395.77 951.182 1395.42 956 1380C962.733 1358.46 984.247 1376.78 997 1372C1002.89 1369.79 1006.72 1362.33 1013 1362Z" fill="#c7b37f" fill-rule="nonzero" opacity="1" stroke="none"/>
<path d="M1013 362C1036.17 360.794 1041.96 388.025 1040 407C1038.98 416.833 1029.42 420.272 1027 428C1026.74 428.842 1026.28 445.32 1021 447C1003.06 452.709 975.269 443.555 973 422C972.441 416.686 974.312 410.818 972 406C967.089 395.768 951.182 395.417 956 380C962.733 358.455 984.247 376.782 997 372C1002.89 369.792 1006.72 362.327 1013 362Z" fill="#c7b37f" fill-rule="nonzero" opacity="1" stroke="none"/>
<path d="M1480 1052C1496.42 1047.99 1523.41 1053.58 1527 1076C1527.95 1081.93 1525.47 1088.55 1528 1094C1534.81 1108.66 1559.51 1107.45 1536 1129C1527.49 1136.8 1512.56 1125.21 1503 1128C1492.06 1131.19 1491.17 1142.65 1478 1138C1460.78 1131.92 1458.07 1105.01 1460 1091C1461.53 1079.88 1468.26 1081.35 1473 1071C1475.81 1064.86 1473.44 1053.6 1480 1052Z" fill="#c7b37f" fill-rule="nonzero" opacity="1" stroke="none"/>
<path d="M480 1052C496.423 1047.99 523.413 1053.58 527 1076C527.949 1081.93 525.469 1088.55 528 1094C534.807 1108.66 559.511 1107.45 536 1129C527.491 1136.8 512.561 1125.21 503 1128C492.062 1131.19 491.171 1142.65 478 1138C460.777 1131.92 458.068 1105.01 460 1091C461.533 1079.88 468.257 1081.35 473 1071C475.812 1064.86 473.443 1053.6 480 1052Z" fill="#c7b37f" fill-rule="nonzero" opacity="1" stroke="none"/>
<path d="M1480 52C1496.42 47.9883 1523.41 53.5801 1527 76C1527.95 81.9338 1525.47 88.5496 1528 94C1534.81 108.662 1559.51 107.448 1536 129C1527.49 136.799 1512.56 125.211 1503 128C1492.06 131.19 1491.17 142.648 1478 138C1460.78 131.921 1458.07 105.01 1460 91C1461.53 79.8837 1468.26 81.3475 1473 71C1475.81 64.8643 1473.44 53.6016 1480 52Z" fill="#c7b37f" fill-rule="nonzero" opacity="1" stroke="none"/>
<path d="M480 52C496.423 47.9883 523.413 53.5801 527 76C527.949 81.9338 525.469 88.5496 528 94C534.807 108.662 559.511 107.448 536 129C527.491 136.799 512.561 125.211 503 128C492.062 131.19 491.171 142.648 478 138C460.777 131.921 458.068 105.01 460 91C461.533 79.8837 468.257 81.3475 473 71C475.812 64.8643 473.443 53.6016 480 52Z" fill="#c7b37f" fill-rule="nonzero" opacity="1" stroke="none"/>
<path d="M980 1552C996.038 1547.53 1023.48 1554 1027 1576C1027.95 1581.93 1025.47 1588.55 1028 1594C1032.99 1604.74 1048.89 1604.37 1044 1620C1037.41 1641.07 1015.89 1624.24 1003 1628C992.062 1631.19 991.171 1642.65 978 1638C960.777 1631.92 958.068 1605.01 960 1591C961.419 1580.71 968.422 1580.16 973 1571C977.118 1562.76 971.224 1554.45 980 1552Z" fill="#c7b37f" fill-rule="nonzero" opacity="1" stroke="none"/>
<path d="M980 552C996.038 547.526 1023.48 553.996 1027 576C1027.95 581.934 1025.47 588.55 1028 594C1032.99 604.744 1048.89 604.367 1044 620C1037.41 641.074 1015.89 624.239 1003 628C992.062 631.19 991.171 642.648 978 638C960.777 631.921 958.068 605.01 960 591C961.419 580.709 968.422 580.157 973 571C977.118 562.764 971.224 554.448 980 552Z" fill="#c7b37f" fill-rule="nonzero" opacity="1" stroke="none"/>
<path d="M1513 1862C1536.17 1860.79 1541.96 1888.02 1540 1907C1538.99 1916.75 1529.18 1920.36 1527 1928C1526.22 1930.72 1526.97 1947.27 1520 1948C1500.07 1950.1 1477.86 1944.67 1473 1922C1471.88 1916.77 1474.31 1910.82 1472 1906C1467.73 1897.1 1450.1 1894.33 1456 1880C1464.93 1858.32 1483.13 1877.2 1497 1872C1502.89 1869.79 1506.72 1862.33 1513 1862Z" fill="#c7b37f" fill-rule="nonzero" opacity="1" stroke="none"/>
<path d="M513 1862C536.171 1860.79 541.963 1888.02 540 1907C538.991 1916.75 529.182 1920.36 527 1928C526.224 1930.72 526.971 1947.27 520 1948C500.07 1950.1 477.858 1944.67 473 1922C471.88 1916.77 474.312 1910.82 472 1906C467.73 1897.1 450.099 1894.33 456 1880C464.928 1858.32 483.126 1877.2 497 1872C502.889 1869.79 506.719 1862.33 513 1862Z" fill="#c7b37f" fill-rule="nonzero" opacity="1" stroke="none"/>
<path d="M1387 960C1397.02 957.903 1406.81 957.892 1416 963C1420.55 965.529 1423.03 971.447 1428 973C1429 973.314 1445.23 973.693 1447 979C1450.96 990.872 1447.87 1006.45 1440 1016C1428.27 1030.25 1420.44 1021.05 1406 1028C1398.99 1031.38 1396.55 1042.11 1389 1044C1358.85 1051.54 1375.2 1013.97 1372 1003C1370.32 997.231 1362.85 993.949 1362 988C1359.73 972.094 1373.49 962.827 1387 960Z" fill="#c7b37f" fill-rule="nonzero" opacity="1" stroke="none"/>
<path d="M387 960C397.022 957.903 406.805 957.892 416 963C420.552 965.529 423.03 971.447 428 973C429.005 973.314 445.231 973.693 447 979C450.957 990.872 447.867 1006.45 440 1016C428.268 1030.25 420.439 1021.05 406 1028C398.989 1031.38 396.549 1042.11 389 1044C358.849 1051.54 375.198 1013.97 372 1003C370.317 997.231 362.85 993.949 362 988C359.728 972.094 373.49 962.827 387 960Z" fill="#c7b37f" fill-rule="nonzero" opacity="1" stroke="none"/>
<path d="M1513 862C1536.17 860.794 1541.96 888.025 1540 907C1538.99 916.751 1529.18 920.362 1527 928C1526.22 930.717 1526.97 947.266 1520 948C1500.07 950.098 1477.86 944.671 1473 922C1471.88 916.775 1474.31 910.818 1472 906C1467.73 897.104 1450.1 894.331 1456 880C1464.93 858.318 1483.13 877.203 1497 872C1502.89 869.792 1506.72 862.327 1513 862Z" fill="#c7b37f" fill-rule="nonzero" opacity="1" stroke="none"/>
<path d="M513 862C536.171 860.794 541.963 888.025 540 907C538.991 916.751 529.182 920.362 527 928C526.224 930.717 526.971 947.266 520 948C500.07 950.098 477.858 944.671 473 922C471.88 916.775 474.312 910.818 472 906C467.73 897.104 450.099 894.331 456 880C464.928 858.318 483.126 877.203 497 872C502.889 869.792 506.719 862.327 513 862Z" fill="#c7b37f" fill-rule="nonzero" opacity="1" stroke="none"/>
<path d="M1887 1460C1897.02 1457.9 1906.81 1457.89 1916 1463C1920.55 1465.53 1923.03 1471.45 1928 1473C1929 1473.31 1945.23 1473.69 1947 1479C1950.96 1490.87 1947.87 1506.45 1940 1516C1928.62 1529.81 1919.53 1521.23 1906 1528C1899.04 1531.48 1896.55 1542.11 1889 1544C1858.85 1551.54 1875.2 1513.97 1872 1503C1870.32 1497.23 1862.85 1493.95 1862 1488C1859.73 1472.09 1873.49 1462.83 1887 1460Z" fill="#c7b37f" fill-rule="nonzero" opacity="1" stroke="none"/>
<path d="M887 1460C897.022 1457.9 906.805 1457.89 916 1463C920.552 1465.53 923.03 1471.45 928 1473C929.005 1473.31 945.231 1473.69 947 1479C950.957 1490.87 947.867 1506.45 940 1516C928.623 1529.81 919.532 1521.23 906 1528C899.04 1531.48 896.549 1542.11 889 1544C858.849 1551.54 875.198 1513.97 872 1503C870.317 1497.23 862.85 1493.95 862 1488C859.728 1472.09 873.49 1462.83 887 1460Z" fill="#c7b37f" fill-rule="nonzero" opacity="1" stroke="none"/>
<path d="M1887 460C1897.02 457.903 1906.81 457.892 1916 463C1920.55 465.529 1923.03 471.447 1928 473C1929 473.314 1945.23 473.693 1947 479C1950.96 490.872 1947.87 506.448 1940 516C1928.62 529.814 1919.53 521.234 1906 528C1899.04 531.48 1896.55 542.113 1889 544C1858.85 551.538 1875.2 513.965 1872 503C1870.32 497.231 1862.85 493.949 1862 488C1859.73 472.094 1873.49 462.827 1887 460Z" fill="#c7b37f" fill-rule="nonzero" opacity="1" stroke="none"/>
<path d="M887 460C897.022 457.903 906.805 457.892 916 463C920.552 465.529 923.03 471.447 928 473C929.005 473.314 945.231 473.693 947 479C950.957 490.872 947.867 506.448 940 516C928.623 529.814 919.532 521.234 906 528C899.04 531.48 896.549 542.113 889 544C858.849 551.538 875.198 513.965 872 503C870.317 497.231 862.85 493.949 862 488C859.728 472.094 873.49 462.827 887 460Z" fill="#c7b37f" fill-rule="nonzero" opacity="1" stroke="none"/>
<path d="M1973 952C1977.19 950.618 1998.75 950.514 2000 958C2004.6 985.619 2003.13 1014.18 2000 1042C1999.58 1045.7 1993.46 1045.62 1990 1047C1973.52 1053.59 1955.08 1041.92 1952 1025C1949.19 1009.53 1952.83 1016.34 1957 1003C1958.98 996.656 1955.33 995.588 1953 990C1945.82 972.778 1957.79 957.016 1973 952Z" fill="#c7b380" fill-rule="nonzero" opacity="1" stroke="none"/>
<path d="M973 1952C980.87 1949.8 989.126 1954.81 997 1957C1009.91 1960.59 1016.75 1944.85 1035 1956C1045.01 1962.12 1050.61 1973.26 1048 1985C1046.83 1990.26 1047.31 1999.11 1042 2000C1014.38 2004.6 985.825 2003.13 958 2000C955.581 1999.73 952.207 1988.52 952 1985C951.013 1968.22 956.953 1956.48 973 1952Z" fill="#c7b380" fill-rule="nonzero" opacity="1" stroke="none"/>
<path d="M958 0C983.268-12.063 1014.29-4.0029 1042 0C1046.72 0.682296 1046.89 8.35918 1048 13C1050.46 23.2523 1045.88 36.9219 1037 43C1023.55 52.2038 1016.01 47.066 1003 43C993.683 40.0885 984.482 50.6095 973 48C948.726 42.4832 940.959 8.13516 958 0Z" fill="#c7b480" fill-rule="nonzero" opacity="1" stroke="none"/>
<path d="M13 952C32.0242 950.376 52.7503 962.199 48 985C46.7601 990.951 40.9095 996.31 43 1003C47.3907 1017.05 52.7846 1032.2 37 1043C30.4453 1047.48 20.8986 1049.9 13 1048C8.35918 1046.89 0.682296 1046.72 0 1042C-4.0029 1014.29-4.0029 985.712 0 958C0.682296 953.276 8.24469 952.406 13 952Z" fill="#c7b480" fill-rule="nonzero" opacity="1" stroke="none"/>
<path d="M1904 1854C1915.55 1852.35 1911.63 1868.53 1914 1878C1918.74 1896.97 1963.45 1935.55 1948 1951C1934.32 1964.68 1898.59 1925.35 1887 1920C1878.69 1916.16 1859.49 1917.49 1853 1911C1839.44 1897.44 1886.97 1893.36 1889 1893C1897.37 1891.52 1892.13 1876.29 1894 1868C1895.54 1861.2 1897.6 1854.91 1904 1854Z" fill="#c5b27f" fill-rule="nonzero" opacity="1" stroke="none"/>
<path d="M1904 854C1916.04 848.557 1912.84 878.681 1918 889C1926.18 905.37 1940.3 918.476 1950 934C1952.76 938.423 1952.44 951.856 1945 953C1926.29 955.879 1910.56 936.256 1898 927C1888.97 920.349 1883.34 917.519 1872 915C1864.48 913.328 1836.41 913.415 1860 899C1863.06 897.128 1866.5 895.779 1870 895C1876.96 893.454 1889.04 897.852 1891 891C1896.13 873.051 1887.08 861.649 1904 854Z" fill="#c5b27e" fill-rule="nonzero" opacity="1" stroke="none"/>
<path d="M936 1049C981.017 1042.94 925.874 1100.94 919 1114C913.743 1123.99 918.975 1139.03 911 1147C905.846 1152.15 900.197 1142.07 899 1140C892.65 1129.03 895.87 1122.9 892 1110C891.697 1108.99 890.046 1109.13 889 1109C885.671 1108.58 842.385 1103.61 855 1091C862.958 1083.04 880.669 1086.74 891 1081C907.21 1071.99 917.448 1051.5 936 1049Z" fill="#c5b27f" fill-rule="nonzero" opacity="1" stroke="none"/>
<path d="M1936 49C1981.02 42.9377 1925.87 100.94 1919 114C1913.74 123.988 1918.97 139.025 1911 147C1905.85 152.154 1900.2 142.068 1899 140C1892.65 129.031 1895.87 122.899 1892 110C1891.7 108.99 1890.05 109.131 1889 109C1885.67 108.584 1842.39 103.615 1855 91C1862.96 83.042 1880.67 86.7394 1891 81C1907.21 71.9944 1917.45 51.4983 1936 49Z" fill="#c5b27f" fill-rule="nonzero" opacity="1" stroke="none"/>
<path d="M936 49C981.017 42.9377 925.874 100.94 919 114C913.743 123.988 918.975 139.025 911 147C905.846 152.154 900.197 142.068 899 140C892.65 129.031 895.87 122.899 892 110C891.697 108.99 890.046 109.131 889 109C885.671 108.584 842.385 103.615 855 91C862.958 83.042 880.669 86.7394 891 81C907.21 71.9944 917.448 51.4983 936 49Z" fill="#c5b27f" fill-rule="nonzero" opacity="1" stroke="none"/>
<path d="M904 1854C916.041 1848.56 912.84 1878.68 918 1889C926.185 1905.37 940.298 1918.48 950 1934C952.764 1938.42 952.439 1951.86 945 1953C926.289 1955.88 910.562 1936.26 898 1927C888.974 1920.35 883.337 1917.52 872 1915C864.476 1913.33 836.411 1913.42 860 1899C863.063 1897.13 866.495 1895.78 870 1895C876.956 1893.45 889.042 1897.85 891 1891C896.128 1873.05 887.078 1861.65 904 1854Z" fill="#c5b27e" fill-rule="nonzero" opacity="1" stroke="none"/>
<path d="M1583 1528C1593.46 1522.93 1590.72 1542.54 1593 1552C1598.17 1573.41 1617.61 1589.77 1629 1608C1631.7 1612.32 1631.12 1625.9 1624 1627C1605.29 1629.88 1589.56 1610.26 1577 1601C1567.97 1594.35 1562.34 1591.52 1551 1589C1542.7 1587.16 1514.82 1586.58 1540 1572C1546.21 1568.41 1568.24 1570.85 1570 1565C1575.07 1548.1 1566.8 1535.85 1583 1528Z" fill="#c5b27f" fill-rule="nonzero" opacity="1" stroke="none"/>
<path d="M583 1528C593.459 1522.93 590.716 1542.54 593 1552C598.169 1573.41 617.608 1589.77 629 1608C631.697 1612.32 631.119 1625.9 624 1627C605.289 1629.88 589.562 1610.26 577 1601C567.974 1594.35 562.337 1591.52 551 1589C542.699 1587.16 514.822 1586.58 540 1572C546.206 1568.41 568.244 1570.85 570 1565C575.069 1548.1 566.805 1535.85 583 1528Z" fill="#c5b27f" fill-rule="nonzero" opacity="1" stroke="none"/>
<path d="M1583 528C1593.46 522.932 1590.72 542.539 1593 552C1598.17 573.414 1617.61 589.772 1629 608C1631.7 612.315 1631.12 625.905 1624 627C1605.29 629.879 1589.56 610.256 1577 601C1567.97 594.349 1562.34 591.519 1551 589C1542.7 587.155 1514.82 586.577 1540 572C1546.21 568.407 1568.24 570.855 1570 565C1575.07 548.102 1566.8 535.847 1583 528Z" fill="#c5b27f" fill-rule="nonzero" opacity="1" stroke="none"/>
<path d="M583 528C593.459 522.932 590.716 542.539 593 552C598.169 573.414 617.608 589.772 629 608C631.697 612.315 631.119 625.905 624 627C605.289 629.879 589.562 610.256 577 601C567.974 594.349 562.337 591.519 551 589C542.699 587.155 514.822 586.577 540 572C546.206 568.407 568.244 570.855 570 565C575.069 548.102 566.805 535.847 583 528Z" fill="#c5b27f" fill-rule="nonzero" opacity="1" stroke="none"/>
<path d="M1324 1621C1340.39 1624.28 1339.98 1646.21 1342 1659C1352.9 1660.72 1373.09 1661.15 1380 1673C1385.12 1681.78 1351.64 1683.18 1346 1686C1332.27 1692.87 1303.37 1726.55 1287 1720C1275.43 1715.37 1281.2 1700.83 1286 1694C1295.05 1681.13 1307.41 1670.29 1314 1656C1319.59 1643.89 1318.21 1632.58 1324 1621Z" fill="#c5b27f" fill-rule="nonzero" opacity="1" stroke="none"/>
<path d="M324 1621C340.385 1624.28 339.98 1646.21 342 1659C352.897 1660.72 373.089 1661.15 380 1673C385.122 1681.78 351.641 1683.18 346 1686C332.265 1692.87 303.371 1726.55 287 1720C275.426 1715.37 281.199 1700.83 286 1694C295.046 1681.13 307.407 1670.29 314 1656C319.591 1643.89 318.208 1632.58 324 1621Z" fill="#c5b27f" fill-rule="nonzero" opacity="1" stroke="none"/>
<path d="M1324 621C1340.39 624.277 1339.98 646.206 1342 659C1352.9 660.721 1373.09 661.153 1380 673C1385.12 681.78 1351.64 683.179 1346 686C1332.27 692.867 1303.37 726.549 1287 720C1275.43 715.37 1281.2 700.832 1286 694C1295.05 681.127 1307.41 670.286 1314 656C1319.59 643.886 1318.21 632.583 1324 621Z" fill="#c5b27f" fill-rule="nonzero" opacity="1" stroke="none"/>
<path d="M324 621C340.385 624.277 339.98 646.206 342 659C352.897 660.721 373.089 661.153 380 673C385.122 681.78 351.641 683.179 346 686C332.265 692.867 303.371 726.549 287 720C275.426 715.37 281.199 700.832 286 694C295.046 681.127 307.407 670.286 314 656C319.591 643.886 318.208 632.583 324 621Z" fill="#c5b27f" fill-rule="nonzero" opacity="1" stroke="none"/>
<path d="M1673 1620C1683.41 1615.07 1680.9 1634.56 1683 1644C1687.77 1665.45 1707.68 1681.89 1719 1700C1721.7 1704.32 1721.12 1717.9 1714 1719C1695.29 1721.88 1679.56 1702.26 1667 1693C1657.91 1686.3 1652.42 1683.58 1641 1681C1635.76 1679.82 1630.21 1680.3 1625 1679C1613.93 1676.23 1627.43 1665.51 1630 1664C1637.37 1659.66 1659.08 1661.6 1660 1657C1663.38 1640.08 1657.41 1627.38 1673 1620Z" fill="#c5b27f" fill-rule="nonzero" opacity="1" stroke="none"/>
<path d="M673 1620C683.414 1615.07 680.902 1634.56 683 1644C687.767 1665.45 707.681 1681.89 719 1700C721.697 1704.32 721.119 1717.9 714 1719C695.289 1721.88 679.562 1702.26 667 1693C657.909 1686.3 652.416 1683.58 641 1681C635.757 1679.82 630.214 1680.3 625 1679C613.929 1676.23 627.43 1665.51 630 1664C637.371 1659.66 659.08 1661.6 660 1657C663.385 1640.08 657.408 1627.38 673 1620Z" fill="#c5b27f" fill-rule="nonzero" opacity="1" stroke="none"/>
<path d="M1936 1049C1980.77 1042.95 1925.98 1100.74 1919 1114C1913.74 1123.99 1918.97 1139.03 1911 1147C1905.85 1152.15 1900.2 1142.07 1899 1140C1892.65 1129.03 1895.87 1122.9 1892 1110C1891.7 1108.99 1890.05 1109.13 1889 1109C1885.67 1108.58 1842.39 1103.61 1855 1091C1862.96 1083.04 1880.67 1086.74 1891 1081C1907.21 1071.99 1917.45 1051.51 1936 1049Z" fill="#c5b27f" fill-rule="nonzero" opacity="1" stroke="none"/>
<path d="M1673 620C1683.41 615.072 1680.9 634.56 1683 644C1687.77 665.453 1707.68 681.89 1719 700C1721.7 704.315 1721.12 717.905 1714 719C1695.29 721.879 1679.56 702.256 1667 693C1657.91 686.301 1652.42 683.578 1641 681C1635.76 679.816 1630.21 680.304 1625 679C1613.93 676.232 1627.43 665.512 1630 664C1637.37 659.664 1659.08 661.598 1660 657C1663.38 640.075 1657.41 627.379 1673 620Z" fill="#c5b27f" fill-rule="nonzero" opacity="1" stroke="none"/>
<path d="M673 620C683.414 615.072 680.902 634.56 683 644C687.767 665.453 707.681 681.89 719 700C721.697 704.315 721.119 717.905 714 719C695.289 721.879 679.562 702.256 667 693C657.909 686.301 652.416 683.578 641 681C635.757 679.816 630.214 680.304 625 679C613.929 676.232 627.43 665.512 630 664C637.371 659.664 659.08 661.598 660 657C663.385 640.075 657.408 627.379 673 620Z" fill="#c5b27f" fill-rule="nonzero" opacity="1" stroke="none"/>
<path d="M1814 1762C1824.52 1757.05 1821.72 1776.54 1824 1786C1829.17 1807.41 1848.61 1823.77 1860 1842C1862.7 1846.32 1862.12 1859.9 1855 1861C1836.29 1863.88 1820.56 1844.26 1808 1835C1798.97 1828.35 1793.34 1825.52 1782 1823C1775.06 1821.46 1745.96 1820.92 1770 1807C1773.38 1805.05 1777.18 1803.79 1781 1803C1787.66 1801.62 1799.67 1805.67 1801 1799C1804.38 1782.08 1798.39 1769.34 1814 1762Z" fill="#c5b27f" fill-rule="nonzero" opacity="1" stroke="none"/>
<path d="M814 1762C824.517 1757.05 821.716 1776.54 824 1786C829.169 1807.41 848.608 1823.77 860 1842C862.697 1846.32 862.119 1859.9 855 1861C836.289 1863.88 820.562 1844.26 808 1835C798.974 1828.35 793.337 1825.52 782 1823C775.058 1821.46 745.956 1820.92 770 1807C773.377 1805.05 777.179 1803.79 781 1803C787.658 1801.62 799.667 1805.67 801 1799C804.385 1782.08 798.391 1769.34 814 1762Z" fill="#c5b27f" fill-rule="nonzero" opacity="1" stroke="none"/>
<path d="M904 854C916.057 849.542 910.59 864.933 914 879C919.072 899.923 938.899 916.238 950 934C952.764 938.423 952.439 951.856 945 953C924.876 956.096 909.962 935.201 895 925C885.754 918.696 822.195 910.001 867 896C872.5 894.281 886.204 895.796 890 892C896.063 885.937 888.886 859.588 904 854Z" fill="#c4b17e" fill-rule="nonzero" opacity="1" stroke="none"/>
<path d="M1814 762C1824.52 757.054 1821.72 776.539 1824 786C1829.17 807.414 1848.61 823.772 1860 842C1862.7 846.315 1862.12 859.905 1855 861C1836.29 863.879 1820.56 844.256 1808 835C1798.97 828.349 1793.34 825.519 1782 823C1775.06 821.457 1745.96 820.92 1770 807C1773.38 805.045 1777.18 803.79 1781 803C1787.66 801.623 1799.67 805.667 1801 799C1804.38 782.075 1798.39 769.342 1814 762Z" fill="#c5b27f" fill-rule="nonzero" opacity="1" stroke="none"/>
<path d="M814 762C824.517 757.054 821.716 776.539 824 786C829.169 807.414 848.608 823.772 860 842C862.697 846.315 862.119 859.905 855 861C836.289 863.879 820.562 844.256 808 835C798.974 828.349 793.337 825.519 782 823C775.058 821.457 745.956 820.92 770 807C773.377 805.045 777.179 803.79 781 803C787.658 801.623 799.667 805.667 801 799C804.385 782.075 798.391 769.342 814 762Z" fill="#c5b27f" fill-rule="nonzero" opacity="1" stroke="none"/>
<path d="M1090 1852C1108.6 1846.56 1104.77 1888.99 1108 1890C1113.17 1891.62 1151.21 1894.12 1146 1908C1143.21 1915.43 1123.47 1912.84 1117 1915C1104.63 1919.12 1056.06 1969.17 1047 1945C1040.17 1926.78 1073.5 1901.24 1081 1885C1086.2 1873.73 1078.24 1855.44 1090 1852Z" fill="#c5b27f" fill-rule="nonzero" opacity="1" stroke="none"/>
<path d="M90 1852C108.605 1846.56 104.774 1888.99 108 1890C113.173 1891.62 151.206 1894.12 146 1908C143.213 1915.43 123.468 1912.84 117 1915C104.634 1919.12 56.0625 1969.17 47 1945C40.1673 1926.78 73.5031 1901.24 81 1885C86.2023 1873.73 78.2406 1855.44 90 1852Z" fill="#c5b27f" fill-rule="nonzero" opacity="1" stroke="none"/>
<path d="M1090 852C1108.6 846.562 1104.77 888.992 1108 890C1113.17 891.616 1151.21 894.119 1146 908C1143.21 915.433 1123.47 912.844 1117 915C1104.63 919.122 1056.06 969.167 1047 945C1040.17 926.78 1073.5 901.243 1081 885C1086.2 873.728 1078.24 855.437 1090 852Z" fill="#c5b27f" fill-rule="nonzero" opacity="1" stroke="none"/>
<path d="M90 852C108.605 846.562 104.774 888.992 108 890C113.173 891.616 151.206 894.119 146 908C143.213 915.433 123.468 912.844 117 915C104.634 919.122 56.0625 969.167 47 945C40.1673 926.78 73.5031 901.243 81 885C86.2023 873.728 78.2406 855.437 90 852Z" fill="#c5b27f" fill-rule="nonzero" opacity="1" stroke="none"/>
<path d="M1416 531C1434.64 526.874 1431.28 568.184 1434 569C1445.43 572.428 1464.5 570.147 1472 583C1477.13 591.788 1442.85 593.419 1435 598C1422.47 605.307 1394.82 636.327 1379 630C1354.99 620.397 1402.1 574.454 1406 566C1411.19 554.762 1404.46 533.555 1416 531Z" fill="#c5b27f" fill-rule="nonzero" opacity="1" stroke="none"/>
<path d="M1182 1762C1200.15 1756.18 1196.96 1799.09 1200 1800C1211.43 1803.43 1230.5 1801.15 1238 1814C1243.13 1822.79 1208.85 1824.42 1201 1829C1187.8 1836.7 1163.33 1868.33 1145 1861C1120.99 1851.4 1168.1 1805.45 1172 1797C1177.59 1784.89 1169.67 1765.95 1182 1762Z" fill="#c5b27f" fill-rule="nonzero" opacity="1" stroke="none"/>
<path d="M182 1762C200.149 1756.18 196.962 1799.09 200 1800C211.427 1803.43 230.502 1801.15 238 1814C243.127 1822.79 208.853 1824.42 201 1829C187.798 1836.7 163.331 1868.33 145 1861C120.993 1851.4 168.098 1805.45 172 1797C177.591 1784.89 169.667 1765.95 182 1762Z" fill="#c5b27f" fill-rule="nonzero" opacity="1" stroke="none"/>
<path d="M1416 1531C1435.45 1525.24 1429.98 1567.79 1434 1569C1445.43 1572.43 1464.5 1570.15 1472 1583C1477.13 1591.79 1442.85 1593.42 1435 1598C1421.8 1605.7 1397.33 1637.33 1379 1630C1354.99 1620.4 1402.1 1574.45 1406 1566C1411.59 1553.89 1403.58 1534.68 1416 1531Z" fill="#c5b27f" fill-rule="nonzero" opacity="1" stroke="none"/>
<path d="M416 1531C435.454 1525.24 429.976 1567.79 434 1569C445.427 1572.43 464.502 1570.15 472 1583C477.127 1591.79 442.853 1593.42 435 1598C421.798 1605.7 397.331 1637.33 379 1630C354.993 1620.4 402.098 1574.45 406 1566C411.591 1553.89 403.582 1534.68 416 1531Z" fill="#c5b27f" fill-rule="nonzero" opacity="1" stroke="none"/>
<path d="M376 1373C399.975 1373 414.054 1395.03 434 1406C442.209 1410.52 486.646 1411.33 461 1427C457.937 1428.87 454.496 1430.18 451 1431C444.435 1432.53 437.667 1433 431 1434C430 1440.33 429.457 1446.76 428 1453C426.543 1459.24 423.16 1468.41 417 1472C407.763 1477.39 410.472 1458.15 407 1446C405.362 1440.27 402.239 1435.01 399 1430C388.768 1414.19 362.521 1395.96 376 1373Z" fill="#c6b27f" fill-rule="nonzero" opacity="1" stroke="none"/>
<path d="M1182 762C1200.15 756.183 1196.96 799.089 1200 800C1211.43 803.428 1230.5 801.147 1238 814C1243.13 822.788 1208.85 824.419 1201 829C1187.8 836.701 1163.33 868.332 1145 861C1120.99 851.397 1168.1 805.454 1172 797C1177.59 784.886 1169.67 765.952 1182 762Z" fill="#c5b27f" fill-rule="nonzero" opacity="1" stroke="none"/>
<path d="M182 762C200.149 756.183 196.962 799.089 200 800C211.427 803.428 230.502 801.147 238 814C243.127 822.788 208.853 824.419 201 829C187.798 836.701 163.331 868.332 145 861C120.993 851.397 168.098 805.454 172 797C177.591 784.886 169.667 765.952 182 762Z" fill="#c5b27f" fill-rule="nonzero" opacity="1" stroke="none"/>
<path d="M416 531C435.454 525.241 429.976 567.793 434 569C445.427 572.428 464.502 570.147 472 583C477.127 591.788 442.853 593.419 435 598C421.798 605.701 397.331 637.332 379 630C354.993 620.397 402.098 574.454 406 566C411.591 553.886 403.582 534.676 416 531Z" fill="#c5b27f" fill-rule="nonzero" opacity="1" stroke="none"/>
<path d="M1610 1370C1656.1 1363.9 1596.47 1423.59 1591 1440C1588.84 1446.47 1591.43 1466.21 1584 1469C1575.46 1472.2 1570.11 1455.18 1569 1450C1567.66 1443.73 1568.98 1436.68 1566 1431C1565.54 1430.11 1516.09 1424.91 1529 1412C1536.96 1404.04 1554.67 1407.74 1565 1402C1581.21 1392.99 1591.44 1372.46 1610 1370Z" fill="#c5b27f" fill-rule="nonzero" opacity="1" stroke="none"/>
<path d="M610 1370C656.104 1363.9 596.471 1423.59 591 1440C588.844 1446.47 591.433 1466.21 584 1469C575.465 1472.2 570.11 1455.18 569 1450C567.657 1443.73 568.975 1436.68 566 1431C565.536 1430.11 516.087 1424.91 529 1412C536.958 1404.04 554.669 1407.74 565 1402C581.21 1392.99 591.442 1372.46 610 1370Z" fill="#c5b27f" fill-rule="nonzero" opacity="1" stroke="none"/>
<path d="M1610 370C1656.1 363.898 1596.47 423.586 1591 440C1588.84 446.468 1591.43 466.213 1584 469C1575.46 472.201 1570.11 455.182 1569 450C1567.66 443.731 1568.98 436.68 1566 431C1565.54 430.115 1516.09 424.913 1529 412C1536.96 404.042 1554.67 407.739 1565 402C1581.21 392.994 1591.44 372.456 1610 370Z" fill="#c5b27f" fill-rule="nonzero" opacity="1" stroke="none"/>
<path d="M610 370C656.104 363.898 596.471 423.586 591 440C588.844 446.468 591.433 466.213 584 469C575.465 472.201 570.11 455.182 569 450C567.657 443.731 568.975 436.68 566 431C565.536 430.115 516.087 424.913 529 412C536.958 404.042 554.669 407.739 565 402C581.21 392.994 591.442 372.456 610 370Z" fill="#c5b27f" fill-rule="nonzero" opacity="1" stroke="none"/>
<path d="M1702 1280C1748.03 1273.34 1688.47 1333.59 1683 1350C1680.84 1356.47 1683.43 1376.21 1676 1379C1667.46 1382.2 1662.11 1365.18 1661 1360C1659.66 1353.73 1660.98 1346.68 1658 1341C1657.54 1340.11 1608.09 1334.91 1621 1322C1628.04 1314.96 1641.19 1318.85 1650 1315C1669.47 1306.48 1681.03 1283.04 1702 1280Z" fill="#c6b27f" fill-rule="nonzero" opacity="1" stroke="none"/>
<path d="M702 1280C748.026 1273.34 688.471 1333.59 683 1350C680.844 1356.47 683.433 1376.21 676 1379C667.465 1382.2 662.11 1365.18 661 1360C659.657 1353.73 660.975 1346.68 658 1341C657.536 1340.11 608.087 1334.91 621 1322C628.039 1314.96 641.194 1318.85 650 1315C669.471 1306.48 681.03 1283.04 702 1280Z" fill="#c6b27f" fill-rule="nonzero" opacity="1" stroke="none"/>
<path d="M1844 1139C1888.68 1132.95 1834.54 1189.57 1828 1202C1822.47 1212.51 1827.14 1228.86 1819 1237C1813.85 1242.15 1808.2 1232.07 1807 1230C1801.86 1221.11 1804.76 1209.1 1800 1200C1799.54 1199.11 1750.09 1193.91 1763 1181C1770.96 1173.04 1788.67 1176.74 1799 1171C1815.21 1161.99 1825.45 1141.51 1844 1139Z" fill="#c6b27f" fill-rule="nonzero" opacity="1" stroke="none"/>
<path d="M844 1139C888.677 1132.95 834.543 1189.57 828 1202C822.467 1212.51 827.137 1228.86 819 1237C813.846 1242.15 808.197 1232.07 807 1230C801.855 1221.11 804.765 1209.1 800 1200C799.536 1199.11 750.087 1193.91 763 1181C770.958 1173.04 788.669 1176.74 799 1171C815.21 1161.99 825.449 1141.51 844 1139Z" fill="#c6b27f" fill-rule="nonzero" opacity="1" stroke="none"/>
<path d="M1702 280C1748.03 273.337 1688.47 333.586 1683 350C1680.84 356.468 1683.43 376.213 1676 379C1667.46 382.201 1662.11 365.182 1661 360C1659.66 353.731 1660.98 346.68 1658 341C1657.54 340.115 1608.09 334.913 1621 322C1628.04 314.961 1641.19 318.853 1650 315C1669.47 306.481 1681.03 283.036 1702 280Z" fill="#c6b27f" fill-rule="nonzero" opacity="1" stroke="none"/>
<path d="M702 280C748.026 273.337 688.471 333.586 683 350C680.844 356.468 683.433 376.213 676 379C667.465 382.201 662.11 365.182 661 360C659.657 353.731 660.975 346.68 658 341C657.536 340.115 608.087 334.913 621 322C628.039 314.961 641.194 318.853 650 315C669.471 306.481 681.03 283.036 702 280Z" fill="#c6b27f" fill-rule="nonzero" opacity="1" stroke="none"/>
<path d="M1844 139C1888.68 132.951 1834.54 189.567 1828 202C1822.47 212.512 1827.14 228.863 1819 237C1813.85 242.154 1808.2 232.068 1807 230C1801.86 221.113 1804.76 209.096 1800 200C1799.54 199.115 1750.09 193.913 1763 181C1770.96 173.042 1788.67 176.739 1799 171C1815.21 161.994 1825.45 141.512 1844 139Z" fill="#c6b27f" fill-rule="nonzero" opacity="1" stroke="none"/>
<path d="M844 139C888.677 132.951 834.543 189.567 828 202C822.467 212.512 827.137 228.863 819 237C813.846 242.154 808.197 232.068 807 230C801.855 221.113 804.765 209.096 800 200C799.536 199.115 750.087 193.913 763 181C770.958 173.042 788.669 176.739 799 171C815.21 161.994 825.449 141.512 844 139Z" fill="#c6b27f" fill-rule="nonzero" opacity="1" stroke="none"/>
<path d="M1145 1139C1169.11 1139 1181.86 1161.4 1202 1172C1209.73 1176.07 1256.2 1177.83 1230 1193C1226.62 1194.95 1222.8 1196.11 1219 1197C1212.76 1198.46 1206.33 1199 1200 1200C1199 1206.33 1198.46 1212.76 1197 1219C1195.54 1225.24 1192.16 1234.41 1186 1238C1177.29 1243.08 1175.44 1208.86 1171 1201C1160.11 1181.74 1139 1168.47 1145 1139Z" fill="#c6b27f" fill-rule="nonzero" opacity="1" stroke="none"/>
<path d="M145 1139C169.113 1139 181.861 1161.4 202 1172C209.734 1176.07 256.196 1177.83 230 1193C226.623 1194.95 222.8 1196.11 219 1197C212.756 1198.46 206.333 1199 200 1200C199 1206.33 198.457 1212.76 197 1219C195.543 1225.24 192.16 1234.41 186 1238C177.289 1243.08 175.443 1208.86 171 1201C160.112 1181.74 139 1168.47 145 1139Z" fill="#c6b27f" fill-rule="nonzero" opacity="1" stroke="none"/>
<path d="M997 465C1040.75 458.988 1047.95 532.503 1003 535C957.22 537.543 950.936 471.331 997 465Z" fill="#c6b37f" fill-rule="nonzero" opacity="1" stroke="none"/>
<path d="M1145 139C1169.11 139 1181.86 161.4 1202 172C1209.73 176.071 1256.2 177.834 1230 193C1226.62 194.955 1222.8 196.113 1219 197C1212.76 198.457 1206.33 199 1200 200C1199 206.333 1198.46 212.756 1197 219C1195.54 225.245 1192.16 234.407 1186 238C1177.29 243.081 1175.44 208.86 1171 201C1160.11 181.737 1139 168.474 1145 139Z" fill="#c6b27f" fill-rule="nonzero" opacity="1" stroke="none"/>
<path d="M145 139C169.113 139 181.861 161.4 202 172C209.734 176.071 256.196 177.834 230 193C226.623 194.955 222.8 196.113 219 197C212.756 198.457 206.333 199 200 200C199 206.333 198.457 212.756 197 219C195.543 225.245 192.16 234.407 186 238C177.289 243.081 175.443 208.86 171 201C160.112 181.737 139 168.474 145 139Z" fill="#c6b27f" fill-rule="nonzero" opacity="1" stroke="none"/>
<path d="M1376 1373C1398.51 1373 1411.95 1392.72 1430 1404C1438.14 1409.09 1487.54 1412.25 1461 1427C1457.59 1428.89 1453.8 1430.11 1450 1431C1443.76 1432.46 1437.33 1433 1431 1434C1430 1440.33 1429.46 1446.76 1428 1453C1426.27 1460.42 1423.41 1467.34 1417 1472C1409.33 1477.58 1404.89 1439.29 1401 1433C1389.74 1414.81 1370 1401.74 1376 1373Z" fill="#c6b27f" fill-rule="nonzero" opacity="1" stroke="none"/>
<path d="M1376 373C1398.51 373 1411.95 392.718 1430 404C1438.14 409.09 1487.54 412.255 1461 427C1457.59 428.895 1453.8 430.113 1450 431C1443.76 432.457 1437.33 433 1431 434C1430 440.333 1429.46 446.756 1428 453C1426.27 460.421 1423.41 467.339 1417 472C1409.33 477.577 1404.89 439.291 1401 433C1389.74 414.806 1370 401.738 1376 373Z" fill="#c6b27f" fill-rule="nonzero" opacity="1" stroke="none"/>
<path d="M376 373C398.51 373 411.949 392.718 430 404C438.144 409.09 487.541 412.255 461 427C457.589 428.895 453.8 430.113 450 431C443.756 432.457 437.333 433 431 434C430 440.333 429.457 446.756 428 453C426.268 460.421 423.409 467.339 417 472C409.331 477.577 404.894 439.291 401 433C389.737 414.806 370 401.738 376 373Z" fill="#c6b27f" fill-rule="nonzero" opacity="1" stroke="none"/>
<path d="M1286 1281C1308.51 1281 1321.95 1300.72 1340 1312C1348.14 1317.09 1397.54 1320.25 1371 1335C1367.59 1336.89 1363.8 1338.11 1360 1339C1353.76 1340.46 1347.33 1341 1341 1342C1340 1348.33 1339.46 1354.76 1338 1361C1336.54 1367.24 1333.16 1376.41 1327 1380C1317.95 1385.28 1317.05 1352.16 1313 1345C1301.9 1325.36 1280 1310.84 1286 1281Z" fill="#c6b27f" fill-rule="nonzero" opacity="1" stroke="none"/>
<path d="M286 1281C308.51 1281 321.949 1300.72 340 1312C348.144 1317.09 397.541 1320.25 371 1335C367.589 1336.89 363.8 1338.11 360 1339C353.756 1340.46 347.333 1341 341 1342C340 1348.33 339.457 1354.76 338 1361C336.543 1367.24 333.16 1376.41 327 1380C317.952 1385.28 317.049 1352.16 313 1345C301.898 1325.36 280 1310.84 286 1281Z" fill="#c6b27f" fill-rule="nonzero" opacity="1" stroke="none"/>
<path d="M1286 281C1308.51 281 1321.95 300.718 1340 312C1348.14 317.09 1397.54 320.255 1371 335C1367.59 336.895 1363.8 338.113 1360 339C1353.76 340.457 1347.33 341 1341 342C1340 348.333 1339.46 354.756 1338 361C1336.54 367.245 1333.16 376.407 1327 380C1317.95 385.278 1317.05 352.164 1313 345C1301.9 325.357 1280 310.839 1286 281Z" fill="#c6b27f" fill-rule="nonzero" opacity="1" stroke="none"/>
<path d="M286 281C308.51 281 321.949 300.718 340 312C348.144 317.09 397.541 320.255 371 335C367.589 336.895 363.8 338.113 360 339C353.756 340.457 347.333 341 341 342C340 348.333 339.457 354.756 338 361C336.543 367.245 333.16 376.407 327 380C317.952 385.278 317.049 352.164 313 345C301.898 325.357 280 310.839 286 281Z" fill="#c6b27f" fill-rule="nonzero" opacity="1" stroke="none"/>
<path d="M1055 1047C1077.8 1047 1090.52 1067.05 1109 1078C1117.06 1082.78 1166.22 1085.82 1140 1101C1136.62 1102.95 1132.8 1104.11 1129 1105C1122.76 1106.46 1116.33 1107 1110 1108C1109 1114.33 1108.46 1120.76 1107 1127C1105.27 1134.42 1102.41 1141.34 1096 1146C1087.89 1151.9 1085.04 1116.14 1081 1109C1069.96 1089.48 1049 1076.73 1055 1047Z" fill="#c6b27f" fill-rule="nonzero" opacity="1" stroke="none"/>
<path d="M55 1047C77.8019 1047 90.5154 1067.05 109 1078C117.058 1082.78 166.224 1085.82 140 1101C136.623 1102.95 132.8 1104.11 129 1105C122.756 1106.46 116.333 1107 110 1108C109 1114.33 108.457 1120.76 107 1127C105.268 1134.42 102.409 1141.34 96 1146C87.8859 1151.9 85.0384 1116.14 81 1109C69.9645 1089.48 49 1076.73 55 1047Z" fill="#c6b27f" fill-rule="nonzero" opacity="1" stroke="none"/>
<path d="M1055 47C1077.8 47 1090.52 67.0462 1109 78C1117.06 82.7752 1166.22 85.8176 1140 101C1136.62 102.955 1132.8 104.113 1129 105C1122.76 106.457 1116.33 107 1110 108C1109 114.333 1108.46 120.756 1107 127C1105.27 134.421 1102.41 141.339 1096 146C1087.89 151.901 1085.04 116.145 1081 109C1069.96 89.4757 1049 76.7308 1055 47Z" fill="#c6b27f" fill-rule="nonzero" opacity="1" stroke="none"/>
<path d="M55 47C77.8019 47 90.5154 67.0462 109 78C117.058 82.7752 166.224 85.8176 140 101C136.623 102.955 132.8 104.113 129 105C122.756 106.457 116.333 107 110 108C109 114.333 108.457 120.756 107 127C105.268 134.421 102.409 141.339 96 146C87.8859 151.901 85.0384 116.145 81 109C69.9645 89.4757 49 76.7308 55 47Z" fill="#c6b27f" fill-rule="nonzero" opacity="1" stroke="none"/>
<path d="M992 1466C1004.07 1462.57 1014.26 1465.87 1024 1475C1043.68 1493.45 1033.73 1530.38 1006 1534C960.944 1539.88 951.53 1477.51 992 1466Z" fill="#c7b37f" fill-rule="nonzero" opacity="1" stroke="none"/>
<path d="M1493 966C1508.43 962.768 1522.81 968.638 1531 984C1540.73 1002.24 1529.46 1031.75 1507 1034C1462.46 1038.45 1448.93 975.231 1493 966Z" fill="#c6b37f" fill-rule="nonzero" opacity="1" stroke="none"/>
<path d="M493 966C508.428 962.768 522.807 968.638 531 984C540.729 1002.24 529.465 1031.75 507 1034C462.463 1038.45 448.929 975.231 493 966Z" fill="#c6b37f" fill-rule="nonzero" opacity="1" stroke="none"/>
<path d="M13 1362C36.2024 1362 41.963 1388.02 40 1407C38.9828 1416.83 29.4151 1420.27 27 1428C26.8628 1428.44 26.2103 1445.54 21 1447C14.2516 1448.89 7 1447.67 0 1448C0 1421.33-2.80783 1394.52 0 1368C0.361355 1364.59 6 1364.67 13 1362Z" fill="#c6b37f" fill-rule="nonzero" opacity="1" stroke="none"/>
<path d="M13 362C36.2024 362 41.963 388.025 40 407C38.9828 416.833 29.4151 420.272 27 428C26.8628 428.439 26.2103 445.541 21 447C14.2516 448.89 7 447.667 0 448C0 421.333-2.80783 394.518 0 368C0.361355 364.587 6 364.667 13 362Z" fill="#c6b37f" fill-rule="nonzero" opacity="1" stroke="none"/>
<path d="M1552 0C1577.87-6.46762 1605.48-2.80783 1632 0C1635.41 0.361355 1635.56 5.884 1637 9C1641.78 19.3622 1635.2 27.387 1627 33C1602.55 49.7305 1591.84 37.4225 1571 27C1569.34 26.1716 1552.76 25.8141 1552 20C1551.14 13.3893 1545.53 1.6169 1552 0Z" fill="#c7b37f" fill-rule="nonzero" opacity="1" stroke="none"/>
<path d="M552 0C577.87-6.46762 605.482-2.80783 632 0C635.413 0.361355 635.562 5.884 637 9C641.783 19.3622 635.204 27.387 627 33C602.548 49.7305 591.845 37.4225 571 27C569.343 26.1716 552.758 25.8141 552 20C551.138 13.3893 545.532 1.6169 552 0Z" fill="#c7b37f" fill-rule="nonzero" opacity="1" stroke="none"/>
<path d="M1387 1960C1397.24 1960 1406.81 1957.89 1416 1963C1420.55 1965.53 1423.03 1971.45 1428 1973C1428.44 1973.14 1445.54 1973.79 1447 1979C1448.89 1985.75 1447.67 1993 1448 2000C1421.33 2000 1394.41 2003.69 1368 2000C1363.57 1999.38 1363.18 1992.31 1362 1988C1358.4 1974.81 1370.07 1969.25 1387 1960Z" fill="#c7b37f" fill-rule="nonzero" opacity="1" stroke="none"/>
<path d="M387 1960C397.239 1960 406.805 1957.89 416 1963C420.552 1965.53 423.03 1971.45 428 1973C428.439 1973.14 445.541 1973.79 447 1979C448.89 1985.75 447.667 1993 448 2000C421.333 2000 394.411 2003.69 368 2000C363.571 1999.38 363.177 1992.31 362 1988C358.403 1974.81 370.068 1969.25 387 1960Z" fill="#c7b37f" fill-rule="nonzero" opacity="1" stroke="none"/>
<path d="M1980 1552C1990 1552 1990 1552 2000 1552C2000 1578.67 2003.69 1605.59 2000 1632C1999.38 1636.43 1992.31 1636.82 1988 1638C1974.44 1641.7 1964.98 1626.94 1961 1616C1952.88 1593.67 1964.75 1587.5 1973 1571C1975.46 1566.08 1974.96 1560.1 1980 1552Z" fill="#c7b37f" fill-rule="nonzero" opacity="1" stroke="none"/>
<path d="M1980 552C1990 552 1990 552 2000 552C2000 578.667 2003.69 605.589 2000 632C1999.38 636.429 1992.31 636.823 1988 638C1974.44 641.699 1964.98 626.936 1961 616C1952.88 593.666 1964.75 587.499 1973 571C1975.46 566.083 1974.96 560.104 1980 552Z" fill="#c7b37f" fill-rule="nonzero" opacity="1" stroke="none"/>
<path d="M1629 2000C1590.5 2000 1590.5 2000 1552 2000C1555.82 1989.5 1562.94 1974.7 1576 1973C1581.96 1972.22 1588.47 1974.34 1594 1972C1607.25 1966.39 1608.88 1940.22 1629 1964C1636.03 1972.31 1626.94 1989.72 1629 2000Z" fill="#c6b37f" fill-rule="nonzero" opacity="1" stroke="none"/>
<path d="M629 2000C590.5 2000 590.5 2000 552 2000C555.817 1989.5 562.939 1974.7 576 1973C581.959 1972.22 588.466 1974.34 594 1972C607.25 1966.39 608.879 1940.22 629 1964C636.031 1972.31 626.943 1989.72 629 2000Z" fill="#c6b37f" fill-rule="nonzero" opacity="1" stroke="none"/>
<path d="M2000 1371C2000 1409 2000 1409 2000 1447C1987.71 1444.54 1974.46 1435.86 1973 1422C1972.44 1416.69 1974.31 1410.82 1972 1406C1965.92 1393.33 1945.52 1390.2 1961 1373C1970.16 1362.82 1988.25 1373.35 2000 1371Z" fill="#c6b37f" fill-rule="nonzero" opacity="1" stroke="none"/>
<path d="M2000 371C2000 409 2000 409 2000 447C1987.71 444.542 1974.46 435.857 1973 422C1972.44 416.686 1974.31 410.818 1972 406C1965.92 393.33 1945.52 390.203 1961 373C1970.16 362.82 1988.25 373.35 2000 371Z" fill="#c6b37f" fill-rule="nonzero" opacity="1" stroke="none"/>
<path d="M0 1553C10.8932 1555.18 25.3823 1563.6 27 1576C27.7772 1581.96 25.4694 1588.55 28 1594C33.1042 1604.99 56.0184 1611.4 39 1627C28.4329 1636.69 12.5242 1626.5 0 1629C0 1591 0 1591 0 1553Z" fill="#c6b37f" fill-rule="nonzero" opacity="1" stroke="none"/>
<path d="M0 553C10.8932 555.179 25.3823 563.598 27 576C27.7772 581.959 25.4694 588.55 28 594C33.1042 604.994 56.0184 611.4 39 627C28.4329 636.686 12.5242 626.495 0 629C0 591 0 591 0 553Z" fill="#c6b37f" fill-rule="nonzero" opacity="1" stroke="none"/>
<path d="M371 0C409 0 409 0 447 0C444.465 12.6742 436.565 24.0932 423 27C417.45 28.1894 411.115 25.5375 406 28C392.153 34.6669 389.406 55.9881 372 37C363.663 27.9054 373.22 11.0978 371 0Z" fill="#c6b37f" fill-rule="nonzero" opacity="1" stroke="none"/>
<path d="M1371 0C1409 0 1409 0 1447 0C1444.51 12.4607 1436.23 24.1654 1423 27C1417.45 28.1894 1411.11 25.5375 1406 28C1392.15 34.6669 1389.41 55.9881 1372 37C1363.66 27.9054 1373.22 11.0978 1371 0Z" fill="#c6b37f" fill-rule="nonzero" opacity="1" stroke="none"/>
<path d="M1973 1952C1978.22 1952 1997.66 1950.51 2000 1958C2004.18 1971.36 2000 1986 2000 2000C1986 2000 1971.69 2002.91 1958 2000C1954.35 1999.22 1954.38 1993.46 1953 1990C1946.98 1974.96 1955.59 1964.25 1973 1952Z" fill="#c7b380" fill-rule="nonzero" opacity="1" stroke="none"/>
<path d="M1958 0C1979 0 1979 0 2000 0C2000 14 2002.91 28.3065 2000 42C1998.61 48.5232 1976.11 48.7075 1973 48C1955.76 44.0811 1952 27.8299 1958 0Z" fill="#c7b380" fill-rule="nonzero" opacity="1" stroke="none"/>
<path d="M13 1952C31.8195 1952 53.0612 1962.22 48 1985C46.8318 1990.26 47.14 1998.39 42 2000C28.6373 2004.18 14 2000 0 2000C0 1979 0 1979 13 1952Z" fill="#c7b480" fill-rule="nonzero" opacity="1" stroke="none"/>
<path d="M0 0C9.8995-9.8995 28.4868-3.65982 42 0C48.7302 1.82276 48.7929 20.6391 48 25C45.1271 40.8007 28.8299 51.7992 13 48C8.35918 46.8862 1.24763 46.6066 0 42C-3.65982 28.4868-9.8995 9.8995 0 0Z" fill="#c7b480" fill-rule="nonzero" opacity="1" stroke="none"/>
<path d="M1534 2000C1500 2000 1500 2000 1466 2000C1466 1954.77 1534 1955.87 1534 2000Z" fill="#c6b37f" fill-rule="nonzero" opacity="1" stroke="none"/>
<path d="M534 2000C500 2000 500 2000 466 2000C466 1954.77 534 1955.87 534 2000Z" fill="#c6b37f" fill-rule="nonzero" opacity="1" stroke="none"/>
<path d="M2000 1466C2000 1500 2000 1500 2000 1534C1953.03 1529.73 1955.06 1466 2000 1466Z" fill="#c7b37f" fill-rule="nonzero" opacity="1" stroke="none"/>
<path d="M0 1466C45.2395 1466 44.1587 1534 0 1534C0 1500 0 1500 0 1466Z" fill="#c7b37f" fill-rule="nonzero" opacity="1" stroke="none"/>
<path d="M2000 466C2000 500 2000 500 2000 534C1953.03 529.73 1955.06 466 2000 466Z" fill="#c7b37f" fill-rule="nonzero" opacity="1" stroke="none"/>
<path d="M0 466C45.2395 466 44.1587 534 0 534C0 500 0 500 0 466Z" fill="#c7b37f" fill-rule="nonzero" opacity="1" stroke="none"/>
<path d="M1466 0C1500 0 1500 0 1534 0C1534 44.9797 1466 44.5048 1466 0Z" fill="#c7b37f" fill-rule="nonzero" opacity="1" stroke="none"/>
<path d="M466 0C500 0 500 0 534 0C534 44.9797 466 44.5048 466 0Z" fill="#c7b37f" fill-rule="nonzero" opacity="1" stroke="none"/>
</g>
</g>
</svg>
